<?xml version="1.0" encoding="UTF-8"?>
<svg version="1.1" xmlns="http://www.w3.org/2000/svg" width="640" height="640">
<path d="M0 0 C2.52734375 2.015625 2.52734375 2.015625 4.9375 4.25 C5.79859375 5.04792969 6.6596875 5.84585938 7.546875 6.66796875 C13.36325348 12.19723301 18.77668215 17.90777483 24 24 C24.90715539 25.0433138 25.81474081 26.08625379 26.72265625 27.12890625 C46.3090685 49.69620902 65.14834279 73.97301867 79.62304688 100.16186523 C80.30463867 101.07174194 80.30463867 101.07174194 81 102 C81.99 102 82.98 102 84 102 C86.33009971 99.66143987 86.33009971 99.66143987 88.6875 96.625 C89.12956787 96.0798877 89.57163574 95.53477539 90.02709961 94.97314453 C91.36150252 93.3232237 92.68292826 91.66377597 94 90 C116.07831864 62.13732482 116.07831864 62.13732482 127.7578125 60.6484375 C136.60986843 60.21828644 142.69589532 62.38017269 149.45703125 68.06640625 C155.86365051 74.19052891 161.19460583 81.13433696 166.56591797 88.15136719 C168.48211624 90.62148181 170.45818501 93.0402677 172.43383789 95.46289062 C215.11611955 147.965077 250.85063735 215.79797783 257 284 C257.16435547 285.68222656 257.16435547 285.68222656 257.33203125 287.3984375 C262.37930771 350.5230418 247.34133037 409.8801656 207 459.3125 C189.0121476 480.31009776 168.68733102 496.92217655 145 511 C144.36416992 511.37995117 143.72833984 511.75990234 143.07324219 512.15136719 C115.52575999 528.36895709 80.97456119 538.4202195 49 539 C48.01290039 539.02046387 47.02580078 539.04092773 46.00878906 539.06201172 C-7.86586172 540.01366613 -59.23367213 527.08999373 -102 493 C-102.88558594 492.30648438 -103.77117187 491.61296875 -104.68359375 490.8984375 C-115.19870154 482.50466495 -125.48919163 473.45310904 -134 463 C-134.96006886 461.87425861 -135.92110641 460.74934304 -136.8828125 459.625 C-169.05097376 421.57017191 -187.52577275 372.81659573 -189 323 C-189.0515625 321.86175781 -189.103125 320.72351563 -189.15625 319.55078125 C-190.52088123 263.31660274 -174.04940405 205.42540261 -148.02001953 155.95019531 C-146.92063847 153.84826714 -145.8484623 151.73364779 -144.77734375 149.6171875 C-129.75087264 120.18543053 -110.9901635 92.50703413 -90 67 C-89.28585938 66.113125 -88.57171875 65.22625 -87.8359375 64.3125 C-83.40902575 58.83590815 -78.84675319 53.52674877 -74.10546875 48.3203125 C-72.27082315 46.29845816 -70.47231214 44.25321478 -68.6875 42.1875 C-21.31428144 -11.98415311 -21.31428144 -11.98415311 0 0 Z M-36 105 C-37.7843117 106.95360124 -39.52205007 108.9293921 -41.23046875 110.94921875 C-43.11745383 113.13612199 -45.07366848 115.25190368 -47.04077148 117.36669922 C-51.99809226 122.70305556 -56.63811084 128.16489 -61 134 C-62.20076172 135.54300781 -62.20076172 135.54300781 -63.42578125 137.1171875 C-64.26337634 138.20285082 -65.10061876 139.28878632 -65.9375 140.375 C-66.70964844 141.37273437 -67.48179687 142.37046875 -68.27734375 143.3984375 C-70.27604867 145.89685586 -70.27604867 145.89685586 -70 149 C-70.57621094 149.22171875 -71.15242188 149.4434375 -71.74609375 149.671875 C-74.686152 151.40431834 -76.0934006 153.47277311 -78.0625 156.25 C-78.73410156 157.18328125 -79.40570313 158.1165625 -80.09765625 159.078125 C-81.982615 161.97329778 -83.45932978 164.91087839 -85 168 C-86.5118191 170.49097287 -88.10628822 172.92767758 -89.6875 175.375 C-94.26744827 182.60224989 -98.21235672 189.98217097 -101.89453125 197.69921875 C-103.11859503 200.24682852 -104.37111715 202.77943984 -105.625 205.3125 C-114.95109203 224.28801906 -122.89195381 243.45379636 -128 264 C-128.17660156 264.69867188 -128.35320312 265.39734375 -128.53515625 266.1171875 C-133.10782562 284.63841973 -135.21785236 302.54825816 -135.1875 321.625 C-135.18689575 322.32865692 -135.1862915 323.03231384 -135.18566895 323.7572937 C-135.14746716 340.17311232 -133.73202681 355.23273879 -129 371 C-128.68675781 372.14339844 -128.37351562 373.28679687 -128.05078125 374.46484375 C-126.94543025 378.18358969 -125.63339287 381.77892451 -124.1875 385.375 C-123.92614258 386.02839355 -123.66478516 386.68178711 -123.39550781 387.35498047 C-121.56670593 391.83388255 -119.47301555 396.04393227 -117.01953125 400.21875 C-115.77293155 402.39671729 -114.92040484 404.66830775 -114 407 C-112.7191048 409.36741331 -111.36516519 411.67921918 -110 414 C-109.34 414 -108.68 414 -108 414 C-107.9071875 414.71800781 -107.814375 415.43601562 -107.71875 416.17578125 C-105.61227583 424.45285095 -97.75317537 431.59464101 -92.08984375 437.72265625 C-90.3052702 439.66734107 -88.61254813 441.64929781 -86.9375 443.6875 C-83.64522095 447.54803543 -79.90179614 450.77044937 -76 454 C-75.20207031 454.66257812 -74.40414062 455.32515625 -73.58203125 456.0078125 C-64.711494 464.17878762 -64.711494 464.17878762 -54 468 C-53.505 469.485 -53.505 469.485 -53 471 C-51.02 471.33 -49.04 471.66 -47 472 C-47 472.66 -47 473.32 -47 474 C-24.71027782 485.90209686 -0.42639723 494.38423964 25 495 C25.85319824 495.02884277 26.70639648 495.05768555 27.58544922 495.08740234 C33.73388113 495.27579441 39.85331345 495.22675978 46 495 C46.84498047 494.9695459 47.68996094 494.9390918 48.56054688 494.90771484 C93.62989932 492.87873059 134.68847662 469.36728326 165 437 C181.69435901 418.17763473 193.60839329 395.34408922 200.12890625 371.12890625 C200.85042884 368.53724886 201.68031814 366.07695171 202.625 363.5625 C206.63903183 351.53357487 206.31911979 338.38439692 206.26074219 325.85791016 C206.25004133 323.13551428 206.26069092 320.41378201 206.2734375 317.69140625 C206.2859607 301.41262427 205.20195553 285.53270266 200 270 C199.43739602 268.14561252 198.88287392 266.28875627 198.3359375 264.4296875 C190.48436509 238.06852816 180.22061516 214.61644581 165.65625 191.28515625 C163.94605361 188.54551528 162.27731496 185.78938786 160.65625 182.99609375 C156.0536188 175.07386127 151.04334127 167.78899672 145.30908203 160.64453125 C143.95566717 158.94430699 142.62976327 157.22537598 141.30859375 155.5 C129.70084005 138.59432083 129.70084005 138.59432083 113 129 C105.69139312 128.44840703 100.78259461 130.33399058 95.25 134.875 C88.40507672 141.14617728 82.23218251 148.59931621 77 156.25 C75 159 75 159 72 160 C68.72264186 157.08679276 66.63847862 153.94182321 64.390625 150.23828125 C61.77811608 146.03331606 58.8618003 142.03745881 56 138 C54.99570429 136.57449305 53.99183137 135.14868819 52.98828125 133.72265625 C51.90894145 132.19004269 50.82951394 130.65749091 49.75 129.125 C49.23042725 128.38709229 48.71085449 127.64918457 48.17553711 126.88891602 C47.20372422 125.51158938 46.22936875 124.13605166 45.25195312 122.76269531 C44.24611489 121.34651902 43.25366419 119.92083876 42.265625 118.4921875 C41.63914062 117.75355469 41.63914062 117.75355469 41 117 C40.34 117 39.68 117 39 117 C38.74476563 116.27296875 38.48953125 115.5459375 38.2265625 114.796875 C34.43634626 106.15421632 26.18004402 98.91042054 19.8125 92.0625 C19.13558105 91.32870117 18.45866211 90.59490234 17.76123047 89.83886719 C11.88868033 83.59919269 7.30041492 79.40595663 -1.5625 78.91796875 C-14.93629726 79.36804847 -27.39084369 95.95342697 -36 105 Z " fill="#A83522" transform="translate(285,36)"/>
</svg>
