<?xml version="1.0" encoding="UTF-8"?>
<svg version="1.1" xmlns="http://www.w3.org/2000/svg" width="640" height="640">
<path d="M0 0 C3.55399292 2.78213709 6.77817062 5.84320755 10 9 C10.78890625 9.76183594 11.5778125 10.52367187 12.390625 11.30859375 C17.17832662 16.00672952 21.64882226 20.89950006 26 26 C26.90428762 27.04093857 27.80929531 28.08125183 28.71484375 29.12109375 C46.43736483 49.5346512 62.30704261 71.31705927 77 94 C77.49870605 94.76521973 77.99741211 95.53043945 78.51123047 96.31884766 C78.97029785 97.03476074 79.42936523 97.75067383 79.90234375 98.48828125 C80.30831787 99.11903564 80.71429199 99.74979004 81.13256836 100.3996582 C82 102 82 102 82 104 C86.28925611 102.4574601 88.4345972 99.20537706 91.0625 95.6875 C92.03845345 94.4151984 93.01636941 93.14440014 93.99609375 91.875 C94.49351074 91.22917969 94.99092773 90.58335938 95.50341797 89.91796875 C114.57655694 65.47448102 114.57655694 65.47448102 128 61 C136.30724408 60.28385827 142.47833894 62.66074618 148.875 68 C158.6302695 77.09847907 166.9431504 87.41049615 175 98 C175.88292725 99.15411377 175.88292725 99.15411377 176.78369141 100.33154297 C188.03784908 115.06505055 198.48998709 130.07912457 208 146 C208.40299316 146.66918457 208.80598633 147.33836914 209.22119141 148.02783203 C232.50560265 186.82934621 249.54598837 229.25087473 257 274 C257.29148926 275.74216797 257.29148926 275.74216797 257.58886719 277.51953125 C259.27084107 289.02051486 259.37227912 300.49700396 259.37060547 312.10546875 C259.37495685 315.46667022 259.41133898 318.82653113 259.44921875 322.1875 C259.69718827 369.8755742 242.51615051 416.65814267 213 454 C212.33693848 454.84135498 211.67387695 455.68270996 210.99072266 456.54956055 C205.37134502 463.55032999 199.35880014 470.04362905 193 476.375 C192.4989978 476.87512604 191.99799561 477.37525208 191.48181152 477.89053345 C182.89801313 486.4252165 174.04157379 494.21035658 164 501 C163.2373584 501.51594727 162.4747168 502.03189453 161.68896484 502.56347656 C133.21151176 521.58713485 101.80096056 533.58210164 68 539 C66.97293945 539.1757959 65.94587891 539.3515918 64.88769531 539.53271484 C59.98642183 540.12182797 55.1551907 540.2011873 50.22265625 540.23828125 C49.1796788 540.246353 48.13670135 540.25442474 47.06211853 540.26274109 C44.85075517 540.27654108 42.63937088 540.2872814 40.42797852 540.29516602 C38.21469672 540.30656558 36.00143968 540.32682048 33.78833008 540.35668945 C-14.29889279 541.00382974 -62.27478481 525.04952205 -100 495 C-100.86238281 494.3296875 -101.72476563 493.659375 -102.61328125 492.96875 C-108.39715743 488.37592388 -113.84562512 483.4675728 -119.25 478.4375 C-120.24241699 477.51783447 -120.24241699 477.51783447 -121.25488281 476.57958984 C-125.80973716 472.29300386 -129.95827075 467.77009116 -134 463 C-134.51900879 462.39776611 -135.03801758 461.79553223 -135.57275391 461.17504883 C-144.4901593 450.77046225 -152.07193307 439.81641109 -159 428 C-159.41233887 427.29794434 -159.82467773 426.59588867 -160.24951172 425.87255859 C-194.27818079 367.00646921 -193.87752247 296.10357525 -176.85961914 231.95629883 C-160.3399484 172.13645857 -129.32975539 116.79312047 -90 69 C-89.28585938 68.113125 -88.57171875 67.22625 -87.8359375 66.3125 C-83.40902575 60.83590815 -78.84675319 55.52674877 -74.10546875 50.3203125 C-72.27082315 48.29845816 -70.47231214 46.25321478 -68.6875 44.1875 C-19.93940404 -11.52460967 -19.93940404 -11.52460967 0 0 Z M-12 42 C-12 42.66 -12 43.32 -12 44 C-12.73605469 43.93039063 -13.47210938 43.86078125 -14.23046875 43.7890625 C-17.68299847 44.05201963 -18.79706613 45.05378984 -21.3125 47.375 C-22.00988281 48.00148438 -22.70726562 48.62796875 -23.42578125 49.2734375 C-25.22458462 50.85690371 -25.22458462 50.85690371 -25 53 C-25.56912109 53.08161377 -26.13824219 53.16322754 -26.72460938 53.24731445 C-29.72236442 54.23895381 -31.18194908 55.80982227 -33.40625 58.04296875 C-34.23253906 58.86990234 -35.05882812 59.69683594 -35.91015625 60.54882812 C-37.19212891 61.8549707 -37.19212891 61.8549707 -38.5 63.1875 C-39.78197266 64.46463867 -39.78197266 64.46463867 -41.08984375 65.76757812 C-45.25600743 69.96948892 -48.78924207 74.01338039 -52 79 C-54.30221345 81.502978 -56.79926725 83.80087518 -59.28515625 86.11914062 C-60.57639069 87.35990903 -61.79437561 88.67589183 -63 90 C-63 90.99 -63 91.98 -63 93 C-63.66 93 -64.32 93 -65 93 C-65 93.66 -65 94.32 -65 95 C-66.485 95.495 -66.485 95.495 -68 96 C-71.31411914 99.45076717 -71.31411914 99.45076717 -72 104 C-72.66 104 -73.32 104 -74 104 C-74 104.66 -74 105.32 -74 106 C-74.66 106 -75.32 106 -76 106 C-76 106.66 -76 107.32 -76 108 C-76.66 108 -77.32 108 -78 108 C-78 109.32 -78 110.64 -78 112 C-78.66 112 -79.32 112 -80 112 C-80 112.66 -80 113.32 -80 114 C-80.66 114 -81.32 114 -82 114 C-82 114.66 -82 115.32 -82 116 C-82.66 116 -83.32 116 -84 116 C-84 117.32 -84 118.64 -84 120 C-84.639375 120.226875 -85.27875 120.45375 -85.9375 120.6875 C-86.618125 121.120625 -87.29875 121.55375 -88 122 C-88.165 122.825 -88.33 123.65 -88.5 124.5 C-88.665 125.325 -88.83 126.15 -89 127 C-91.0625 128.3125 -91.0625 128.3125 -93 129 C-93 129.66 -93 130.32 -93 131 C-93.66 131 -94.32 131 -95 131 C-95 132.32 -95 133.64 -95 135 C-95.66 135 -96.32 135 -97 135 C-97 135.66 -97 136.32 -97 137 C-97.66 137 -98.32 137 -99 137 C-100.527947 139.11180772 -100.527947 139.11180772 -102 141.75 C-102.515625 142.63171875 -103.03125 143.5134375 -103.5625 144.421875 C-104.42135212 145.96220761 -105.25244164 147.51933606 -106.0234375 149.10546875 C-107.38254138 151.74213028 -109.17054921 153.97276472 -110.9765625 156.31640625 C-112.25972184 158.09887619 -112.25972184 158.09887619 -112 161 C-112.66 161 -113.32 161 -114 161 C-114 162.32 -114 163.64 -114 165 C-114.66 165 -115.32 165 -116 165 C-116 166.32 -116 167.64 -116 169 C-116.66 169 -117.32 169 -118 169 C-118 170.32 -118 171.64 -118 173 C-118.66 173 -119.32 173 -120 173 C-120.515625 174.19625 -121.03125 175.3925 -121.5625 176.625 C-122.90311439 179.66437125 -124.31476595 182.65112748 -125.82421875 185.609375 C-126.14124756 186.23118652 -126.45827637 186.85299805 -126.78491211 187.49365234 C-127.42235752 188.73629194 -128.0650108 189.97627538 -128.71313477 191.21337891 C-130.15637132 194.02751328 -131 195.78777479 -131 199 C-131.66 199 -132.32 199 -133 199 C-133 200.32 -133 201.64 -133 203 C-133.66 203 -134.32 203 -135 203 C-135 204.98 -135 206.96 -135 209 C-135.66 209 -136.32 209 -137 209 C-137.99052547 211.49600303 -138.96744057 213.99604797 -139.9375 216.5 C-140.21529297 217.19609375 -140.49308594 217.8921875 -140.77929688 218.609375 C-142.63624614 223.44191767 -143.54100634 227.84067888 -144 233 C-144.66 233 -145.32 233 -146 233 C-146 235.64 -146 238.28 -146 241 C-146.66 241 -147.32 241 -148 241 C-149.75747614 245.50353262 -150.19294408 249.17639811 -150 254 C-150.66 254 -151.32 254 -152 254 C-152 256.64 -152 259.28 -152 262 C-152.66 262 -153.32 262 -154 262 C-157.57101615 281.87886607 -157.57101615 281.87886607 -158 302 C-158.66 302 -159.32 302 -160 302 C-160 313.55 -160 325.1 -160 337 C-159.34 337 -158.68 337 -158 337 C-158.03480469 337.65742188 -158.06960937 338.31484375 -158.10546875 338.9921875 C-158.41254459 349.78370981 -156.69380766 360.55586807 -154 371 C-153.34 371 -152.68 371 -152 371 C-152 372.98 -152 374.96 -152 377 C-151.34 377 -150.68 377 -150 377 C-149.77213542 378.98567708 -149.54427083 380.97135417 -149.31640625 382.95703125 C-149.02829265 385.19396393 -149.02829265 385.19396393 -148 388 C-147.34 388 -146.68 388 -146 388 C-146 389.98 -146 391.96 -146 394 C-145.34 394 -144.68 394 -144 394 C-144 395.32 -144 396.64 -144 398 C-143.34 398 -142.68 398 -142 398 C-141.87625 398.886875 -141.7525 399.77375 -141.625 400.6875 C-141.05587264 403.70387502 -140.23385564 406.20326054 -139 409 C-138.34 409 -137.68 409 -137 409 C-136.88785156 409.71542969 -136.77570313 410.43085938 -136.66015625 411.16796875 C-135.95543995 414.19115998 -134.86712202 416.56322688 -133.4375 419.3125 C-132.75494141 420.63701172 -132.75494141 420.63701172 -132.05859375 421.98828125 C-131.70925781 422.65214844 -131.35992187 423.31601562 -131 424 C-130.34 424 -129.68 424 -129 424 C-128.773125 424.845625 -128.54625 425.69125 -128.3125 426.5625 C-126.80761382 430.50386856 -124.87296745 433.88761859 -122 437 C-121.34 437 -120.68 437 -120 437 C-120 437.66 -120 438.32 -120 439 C-119.34 439 -118.68 439 -118 439 C-118 439.66 -118 440.32 -118 441 C-117.34 441 -116.68 441 -116 441 C-116 442.32 -116 443.64 -116 445 C-115.34 445 -114.68 445 -114 445 C-114 445.66 -114 446.32 -114 447 C-113.34 447 -112.68 447 -112 447 C-112 447.66 -112 448.32 -112 449 C-111.34 449 -110.68 449 -110 449 C-110 449.66 -110 450.32 -110 451 C-109.34 451 -108.68 451 -108 451 C-107.505 452.485 -107.505 452.485 -107 454 C-106.34 454 -105.68 454 -105 454 C-104.67 455.65 -104.34 457.3 -104 459 C-102.35 459.33 -100.7 459.66 -99 460 C-99 460.66 -99 461.32 -99 462 C-98.34 462 -97.68 462 -97 462 C-97 462.66 -97 463.32 -97 464 C-96.34 464 -95.68 464 -95 464 C-95 464.66 -95 465.32 -95 466 C-94.34 466 -93.68 466 -93 466 C-92.505 467.485 -92.505 467.485 -92 469 C-88.54923283 472.31411914 -88.54923283 472.31411914 -84 473 C-84 473.66 -84 474.32 -84 475 C-83.34 475 -82.68 475 -82 475 C-82 475.66 -82 476.32 -82 477 C-80.68 477 -79.36 477 -78 477 C-77.34 478.32 -76.68 479.64 -76 481 C-75.34 481 -74.68 481 -74 481 C-74 481.66 -74 482.32 -74 483 C-72.48419823 484.18044671 -72.48419823 484.18044671 -70.4921875 485.27734375 C-69.75226563 485.70853516 -69.01234375 486.13972656 -68.25 486.58398438 C-67.074375 487.25397461 -67.074375 487.25397461 -65.875 487.9375 C-65.11445313 488.38029297 -64.35390625 488.82308594 -63.5703125 489.27929688 C-56.21242641 494.0417847 -56.21242641 494.0417847 -48 496 C-48 496.66 -48 497.32 -48 498 C-46.02 498 -44.04 498 -42 498 C-42 498.66 -42 499.32 -42 500 C-40.68 500 -39.36 500 -38 500 C-38 500.66 -38 501.32 -38 502 C-12.04505955 510.70702766 -12.04505955 510.70702766 15 513 C15 513.99 15 514.98 15 516 C27.87 516 40.74 516 54 516 C54 515.01 54 514.02 54 513 C55.45019531 513.03480469 55.45019531 513.03480469 56.9296875 513.0703125 C64.5655519 513.17615616 71.55811233 512.96115628 79 511 C79 510.34 79 509.68 79 509 C79.97066406 509.0515625 80.94132813 509.103125 81.94140625 509.15625 C86.53853852 509.15625 90.587167 507.87928296 94.9375 506.5 C95.71673828 506.26152344 96.49597656 506.02304687 97.29882812 505.77734375 C99.20190376 505.19357822 101.10134922 504.59800024 103 504 C103 503.34 103 502.68 103 502 C104.98 502 106.96 502 109 502 C109 501.34 109 500.68 109 500 C110.32 500 111.64 500 113 500 C113 499.34 113 498.68 113 498 C113.556875 497.91363281 114.11375 497.82726562 114.6875 497.73828125 C119.93386127 496.77231271 123.73984909 495.23179792 128.140625 492.23046875 C130 491 130 491 133.4375 489.375 C136.31114204 488.21061378 136.31114204 488.21061378 137 485 C138.32 485 139.64 485 141 485 C141 484.34 141 483.68 141 483 C142.32 483 143.64 483 145 483 C145 482.34 145 481.68 145 481 C145.66 481 146.32 481 147 481 C147 480.34 147 479.68 147 479 C147.66 479 148.32 479 149 479 C149 478.34 149 477.68 149 477 C149.556875 476.9175 150.11375 476.835 150.6875 476.75 C153.73677919 475.76104459 155.65189963 474.15242534 158 472 C158 471.34 158 470.68 158 470 C159.65 469.67 161.3 469.34 163 469 C163.33 468.01 163.66 467.02 164 466 C164.66 466 165.32 466 166 466 C166 465.34 166 464.68 166 464 C166.99 463.67 167.98 463.34 169 463 C170.71289005 461.27234836 170.71289005 461.27234836 172.375 459.1875 C175.02727714 456.03968063 177.7624027 453.55083424 181 451 C181 450.34 181 449.68 181 449 C181.99 448.67 182.98 448.34 184 448 C184.33 446.35 184.66 444.7 185 443 C185.66 443 186.32 443 187 443 C187 442.34 187 441.68 187 441 C187.99 440.67 188.98 440.34 190 440 C192.2773501 437.18490007 192.2773501 437.18490007 192 434 C192.66 434 193.32 434 194 434 C194 433.34 194 432.68 194 432 C194.66 432 195.32 432 196 432 C196 430.68 196 429.36 196 428 C196.66 428 197.32 428 198 428 C198 427.34 198 426.68 198 426 C198.66 426 199.32 426 200 426 C200 424.68 200 423.36 200 422 C200.66 422 201.32 422 202 422 C205.76989103 416.78868004 208.52569034 411.09010738 211.3125 405.3125 C211.67424316 404.57588135 212.03598633 403.8392627 212.40869141 403.08032227 C214.21348214 399.25716379 215.50414315 396.33221318 215 392 C215.66 392 216.32 392 217 392 C217 390.68 217 389.36 217 388 C217.66 388 218.32 388 219 388 C219 386.02 219 384.04 219 382 C219.66 382 220.32 382 221 382 C221.64779076 379.60468067 222.29329009 377.20878252 222.9375 374.8125 C223.11990234 374.13896484 223.30230469 373.46542969 223.49023438 372.77148438 C224.87277278 367.61838669 225.96246387 362.5134231 226.71875 357.234375 C226.84636719 356.34363281 226.97398437 355.45289063 227.10546875 354.53515625 C227.23566406 353.61605469 227.36585938 352.69695312 227.5 351.75 C227.69529297 350.39455078 227.69529297 350.39455078 227.89453125 349.01171875 C228.51690394 344.64253677 229.08623639 340.28165773 229.53125 335.890625 C230 332 230 332 231 331 C231.08700342 329.36527118 231.10701063 327.72685945 231.09765625 326.08984375 C231.09282227 324.60581055 231.09282227 324.60581055 231.08789062 323.09179688 C231.07951172 322.05087891 231.07113281 321.00996094 231.0625 319.9375 C231.05573242 318.37032227 231.05573242 318.37032227 231.04882812 316.77148438 C231.03699913 314.1809334 231.02051689 311.59049441 231 309 C230.01 309 229.02 309 228 309 C228 302.07 228 295.14 228 288 C227.34 288 226.68 288 226 288 C226.04640625 287.43796875 226.0928125 286.8759375 226.140625 286.296875 C226.70587981 273.13451303 223.1389453 259.41683589 219 247 C218.34 247 217.68 247 217 247 C217 245.02 217 243.04 217 241 C216.34 241 215.68 241 215 241 C215 239.02 215 237.04 215 235 C214.34 235 213.68 235 213 235 C212.9071875 233.453125 212.9071875 233.453125 212.8125 231.875 C211.74149423 223.18277922 208.0083364 214.71194546 204 207 C203.34 207 202.68 207 202 207 C202 205.68 202 204.36 202 203 C201.34 203 200.68 203 200 203 C200 201.68 200 200.36 200 199 C199.34 199 198.68 199 198 199 C197.88213135 198.27079346 197.7642627 197.54158691 197.64282227 196.7902832 C196.99467402 193.97688164 196.07716839 191.89042726 194.71484375 189.35546875 C194.26689453 188.51435547 193.81894531 187.67324219 193.35742188 186.80664062 C192.88884766 185.94232422 192.42027344 185.07800781 191.9375 184.1875 C191.46505859 183.30384766 190.99261719 182.42019531 190.50585938 181.50976562 C189.34296716 179.33668422 188.17421625 177.16697716 187 175 C186.34 175 185.68 175 185 175 C185 173.68 185 172.36 185 171 C184.34 171 183.68 171 183 171 C183 169.68 183 168.36 183 167 C182.34 167 181.68 167 181 167 C181 166.34 181 165.68 181 165 C180.34 165 179.68 165 179 165 C179 163.68 179 162.36 179 161 C178.34 161 177.68 161 177 161 C177 160.34 177 159.68 177 159 C176.34 159 175.68 159 175 159 C174.90332031 158.45214844 174.80664062 157.90429688 174.70703125 157.33984375 C173.81280759 154.38050689 172.36716314 152.15572725 170.6875 149.5625 C170.09324219 148.63566406 169.49898438 147.70882812 168.88671875 146.75390625 C167.03851566 144.05621851 165.06521358 141.5338263 163 139 C162.0560339 137.75487581 161.11812019 136.5051304 160.1875 135.25 C157.3265433 131.4110632 154.38394516 127.64102544 151.41796875 123.8828125 C150 122 150 122 149 120 C148.34 120 147.68 120 147 120 C147 119.34 147 118.68 147 118 C146.34 118 145.68 118 145 118 C144.34 116.68 143.68 115.36 143 114 C142.34 114 141.68 114 141 114 C141 112.68 141 111.36 141 110 C140.34 110 139.68 110 139 110 C139 109.34 139 108.68 139 108 C138.34 108 137.68 108 137 108 C136.67 107.01 136.34 106.02 136 105 C135.34 105 134.68 105 134 105 C134 104.34 134 103.68 134 103 C127.03909304 98.54501955 120.17873078 97.7096202 112 99 C107.06024193 101.67463585 103.28532801 105.40985431 99.375 109.375 C98.81554687 109.92671875 98.25609375 110.4784375 97.6796875 111.046875 C94.28688127 114.45568504 91.59511881 117.92531119 89 122 C88.34 122.66 87.68 123.32 87 124 C87 124.99 87 125.98 87 127 C86.34 127 85.68 127 85 127 C85 127.66 85 128.32 85 129 C84.01 129.33 83.02 129.66 82 130 C80.60287726 131.95597184 79.26220093 133.95436401 78 136 C77.01 135.67 76.02 135.34 75 135 C75 134.34 75 133.68 75 133 C74.34 133 73.68 133 73 133 C73 132.34 73 131.68 73 131 C72.34 131 71.68 131 71 131 C71 129.68 71 128.36 71 127 C70.34 127 69.68 127 69 127 C68.86464844 126.18402344 68.86464844 126.18402344 68.7265625 125.3515625 C67.77538266 122.2730127 66.19231601 120.03431571 64.375 117.375 C63.65957031 116.323125 62.94414062 115.27125 62.20703125 114.1875 C59.60643534 110.4315951 56.99326996 106.68528664 54.34765625 102.9609375 C53 101 53 101 52 99 C51.34 99 50.68 99 50 99 C49.01 97.02 49.01 97.02 48 95 C47.34 95 46.68 95 46 95 C45.938125 94.29875 45.87625 93.5975 45.8125 92.875 C44.70649878 88.96145722 42.69706462 87.0341977 40 84 C39.67 83.34 39.34 82.68 39 82 C38.34 82 37.68 82 37 82 C37 81.34 37 80.68 37 80 C36.34 80 35.68 80 35 80 C35 79.34 35 78.68 35 78 C34.34 78 33.68 78 33 78 C33 77.34 33 76.68 33 76 C32.34 76 31.68 76 31 76 C31 74.68 31 73.36 31 72 C30.34 72 29.68 72 29 72 C29 71.34 29 70.68 29 70 C28.34 70 27.68 70 27 70 C26.5978125 69.1028125 26.5978125 69.1028125 26.1875 68.1875 C25.00082594 66.00152146 23.90400887 64.58667406 22 63 C21.34 63 20.68 63 20 63 C20 62.34 20 61.68 20 61 C19.34 61 18.68 61 18 61 C18 59.68 18 58.36 18 57 C17.34 57 16.68 57 16 57 C16 56.34 16 55.68 16 55 C15.34 55 14.68 55 14 55 C14 54.34 14 53.68 14 53 C13.34 53 12.68 53 12 53 C11.67 52.01 11.34 51.02 11 50 C8.18490007 47.7226499 8.18490007 47.7226499 5 48 C5 47.34 5 46.68 5 46 C4.34 46 3.68 46 3 46 C3 45.34 3 44.68 3 44 C1.68 44 0.36 44 -1 44 C-1 43.34 -1 42.68 -1 42 C-4.63 42 -8.26 42 -12 42 Z " fill="#A33321" transform="translate(284,35)"/>
</svg>
