<?xml version="1.0" encoding="UTF-8"?>
<svg version="1.1" xmlns="http://www.w3.org/2000/svg" width="640" height="640">
<path d="M0 0 C3.53846584 3.25529844 6.92749342 6.64874602 10.3125 10.0625 C11.21162109 10.95388672 12.11074219 11.84527344 13.03710938 12.76367188 C19.12308217 18.86724691 24.62684004 25.26734264 30 32 C31.14517321 33.37880543 32.29453871 34.75414621 33.44921875 36.125 C46.92668074 52.2144367 58.96005561 69.13867735 70.47265625 86.67675781 C72.59115676 89.89920839 74.7323454 93.10606265 76.875 96.3125 C77.91666667 97.875 78.95833333 99.4375 80 101 C80.99966797 99.71029297 80.99966797 99.71029297 82.01953125 98.39453125 C87.69804469 91.09982552 93.48254241 83.92177334 99.5078125 76.91015625 C101.00255798 75.16472462 102.48202149 73.40576704 103.9296875 71.62109375 C108.56785138 65.98903761 113.98998965 61.33667012 121 59 C132.8431335 58.08204429 139.11038463 59.51495048 148 67.125 C151.98566544 70.85664731 155.43768475 74.7708231 158.7578125 79.09765625 C160.44931217 81.28717586 162.16514907 83.42930888 163.9296875 85.55859375 C183.08131781 108.68200273 199.55605443 133.69353723 214 160 C214.68739258 161.23121582 214.68739258 161.23121582 215.38867188 162.48730469 C250.23368512 225.08476466 268.54198018 303.80542159 249.05444336 374.22509766 C248.39152116 376.4907563 247.70254981 378.74632851 247 381 C246.75942871 381.7832666 246.51885742 382.5665332 246.27099609 383.37353516 C235.71951457 417.10434845 217.12415813 447.14839005 192.54541016 472.40771484 C191.2180971 473.77528763 189.90983314 475.16130336 188.60546875 476.55078125 C182.32712101 483.10868436 175.24313982 488.56278005 168 494 C167.43120117 494.42958008 166.86240234 494.85916016 166.27636719 495.30175781 C137.68459332 516.75797633 103.50401003 531.91155239 68 537 C66.8661084 537.17297607 65.7322168 537.34595215 64.56396484 537.52416992 C53.81257016 539.03753317 43.22308921 539.36047485 32.375 539.3125 C31.49504364 539.31034485 30.61508728 539.3081897 29.70846558 539.30596924 C16.26425977 539.25321876 3.20103666 538.74410553 -10 536 C-11.45188721 535.70996094 -11.45188721 535.70996094 -12.93310547 535.4140625 C-50.60450379 527.70976516 -84.91156111 511.12490669 -114 486 C-114.91007812 485.22011719 -115.82015625 484.44023438 -116.7578125 483.63671875 C-119.22066132 481.47083724 -121.61995399 479.25655306 -124 477 C-124.49564453 476.53158691 -124.99128906 476.06317383 -125.50195312 475.58056641 C-133.84733145 467.63826073 -141.13206378 459.23894802 -148 450 C-148.4237793 449.44231934 -148.84755859 448.88463867 -149.28417969 448.31005859 C-156.5421633 438.75083113 -162.47749079 428.64657863 -168 418 C-168.58612061 416.87682373 -168.58612061 416.87682373 -169.18408203 415.73095703 C-185.66376267 383.74668386 -192.44842863 349.2990078 -192.3125 313.5625 C-192.31034485 312.54398956 -192.3081897 311.52547913 -192.30596924 310.47610474 C-192.25381566 295.11205115 -191.77449447 280.14878964 -189 265 C-188.80132324 263.88028809 -188.60264648 262.76057617 -188.39794922 261.60693359 C-171.29955714 167.30321759 -118.04497292 85.01338778 -51.19897461 17.95874023 C-49.29664801 16.04656595 -47.40527454 14.12394811 -45.51367188 12.20117188 C-33.01686522 -0.40636662 -17.19216929 -13.92607408 0 0 Z M-16 40 C-16 40.66 -16 41.32 -16 42 C-16.73605469 41.93039063 -17.47210938 41.86078125 -18.23046875 41.7890625 C-21.68299847 42.05201963 -22.79706613 43.05378984 -25.3125 45.375 C-26.00988281 46.00148438 -26.70726562 46.62796875 -27.42578125 47.2734375 C-29.22458462 48.85690371 -29.22458462 48.85690371 -29 51 C-29.56912109 51.08161377 -30.13824219 51.16322754 -30.72460938 51.24731445 C-33.72236442 52.23895381 -35.18194908 53.80982227 -37.40625 56.04296875 C-38.23253906 56.86990234 -39.05882812 57.69683594 -39.91015625 58.54882812 C-41.19212891 59.8549707 -41.19212891 59.8549707 -42.5 61.1875 C-43.78197266 62.46463867 -43.78197266 62.46463867 -45.08984375 63.76757812 C-49.25600743 67.96948892 -52.78924207 72.01338039 -56 77 C-58.30221345 79.502978 -60.79926725 81.80087518 -63.28515625 84.11914062 C-64.57639069 85.35990903 -65.79437561 86.67589183 -67 88 C-67 88.99 -67 89.98 -67 91 C-67.66 91 -68.32 91 -69 91 C-69 91.66 -69 92.32 -69 93 C-70.485 93.495 -70.485 93.495 -72 94 C-75.31411914 97.45076717 -75.31411914 97.45076717 -76 102 C-76.66 102 -77.32 102 -78 102 C-78 102.66 -78 103.32 -78 104 C-78.66 104 -79.32 104 -80 104 C-80 104.66 -80 105.32 -80 106 C-80.66 106 -81.32 106 -82 106 C-82 107.32 -82 108.64 -82 110 C-82.66 110 -83.32 110 -84 110 C-84 110.66 -84 111.32 -84 112 C-84.66 112 -85.32 112 -86 112 C-86 112.66 -86 113.32 -86 114 C-86.66 114 -87.32 114 -88 114 C-88 115.32 -88 116.64 -88 118 C-88.639375 118.226875 -89.27875 118.45375 -89.9375 118.6875 C-90.618125 119.120625 -91.29875 119.55375 -92 120 C-92.165 120.825 -92.33 121.65 -92.5 122.5 C-92.665 123.325 -92.83 124.15 -93 125 C-95.0625 126.3125 -95.0625 126.3125 -97 127 C-97 127.66 -97 128.32 -97 129 C-97.66 129 -98.32 129 -99 129 C-99 130.32 -99 131.64 -99 133 C-99.66 133 -100.32 133 -101 133 C-101 133.66 -101 134.32 -101 135 C-101.66 135 -102.32 135 -103 135 C-104.527947 137.11180772 -104.527947 137.11180772 -106 139.75 C-106.515625 140.63171875 -107.03125 141.5134375 -107.5625 142.421875 C-108.42135212 143.96220761 -109.25244164 145.51933606 -110.0234375 147.10546875 C-111.38254138 149.74213028 -113.17054921 151.97276472 -114.9765625 154.31640625 C-116.25972184 156.09887619 -116.25972184 156.09887619 -116 159 C-116.66 159 -117.32 159 -118 159 C-118 160.32 -118 161.64 -118 163 C-118.66 163 -119.32 163 -120 163 C-120 164.32 -120 165.64 -120 167 C-120.66 167 -121.32 167 -122 167 C-122 168.32 -122 169.64 -122 171 C-122.66 171 -123.32 171 -124 171 C-124.515625 172.19625 -125.03125 173.3925 -125.5625 174.625 C-126.90311439 177.66437125 -128.31476595 180.65112748 -129.82421875 183.609375 C-130.14124756 184.23118652 -130.45827637 184.85299805 -130.78491211 185.49365234 C-131.42235752 186.73629194 -132.0650108 187.97627538 -132.71313477 189.21337891 C-134.15637132 192.02751328 -135 193.78777479 -135 197 C-135.66 197 -136.32 197 -137 197 C-137 198.32 -137 199.64 -137 201 C-137.66 201 -138.32 201 -139 201 C-139 202.98 -139 204.96 -139 207 C-139.66 207 -140.32 207 -141 207 C-141.99052547 209.49600303 -142.96744057 211.99604797 -143.9375 214.5 C-144.21529297 215.19609375 -144.49308594 215.8921875 -144.77929688 216.609375 C-146.63624614 221.44191767 -147.54100634 225.84067888 -148 231 C-148.66 231 -149.32 231 -150 231 C-150 233.64 -150 236.28 -150 239 C-150.66 239 -151.32 239 -152 239 C-153.75747614 243.50353262 -154.19294408 247.17639811 -154 252 C-154.66 252 -155.32 252 -156 252 C-156 254.64 -156 257.28 -156 260 C-156.66 260 -157.32 260 -158 260 C-161.57101615 279.87886607 -161.57101615 279.87886607 -162 300 C-162.66 300 -163.32 300 -164 300 C-164 311.55 -164 323.1 -164 335 C-163.34 335 -162.68 335 -162 335 C-162.03480469 335.65742188 -162.06960937 336.31484375 -162.10546875 336.9921875 C-162.41254459 347.78370981 -160.69380766 358.55586807 -158 369 C-157.34 369 -156.68 369 -156 369 C-156 370.98 -156 372.96 -156 375 C-155.34 375 -154.68 375 -154 375 C-153.77213542 376.98567708 -153.54427083 378.97135417 -153.31640625 380.95703125 C-153.02829265 383.19396393 -153.02829265 383.19396393 -152 386 C-151.34 386 -150.68 386 -150 386 C-150 387.98 -150 389.96 -150 392 C-149.34 392 -148.68 392 -148 392 C-148 393.32 -148 394.64 -148 396 C-147.34 396 -146.68 396 -146 396 C-145.87625 396.886875 -145.7525 397.77375 -145.625 398.6875 C-145.05587264 401.70387502 -144.23385564 404.20326054 -143 407 C-142.34 407 -141.68 407 -141 407 C-140.88785156 407.71542969 -140.77570313 408.43085938 -140.66015625 409.16796875 C-139.95543995 412.19115998 -138.86712202 414.56322688 -137.4375 417.3125 C-136.75494141 418.63701172 -136.75494141 418.63701172 -136.05859375 419.98828125 C-135.70925781 420.65214844 -135.35992187 421.31601562 -135 422 C-134.34 422 -133.68 422 -133 422 C-132.773125 422.845625 -132.54625 423.69125 -132.3125 424.5625 C-130.80761382 428.50386856 -128.87296745 431.88761859 -126 435 C-125.34 435 -124.68 435 -124 435 C-124 435.66 -124 436.32 -124 437 C-123.34 437 -122.68 437 -122 437 C-122 437.66 -122 438.32 -122 439 C-121.34 439 -120.68 439 -120 439 C-120 440.32 -120 441.64 -120 443 C-119.34 443 -118.68 443 -118 443 C-118 443.66 -118 444.32 -118 445 C-117.34 445 -116.68 445 -116 445 C-116 445.66 -116 446.32 -116 447 C-115.34 447 -114.68 447 -114 447 C-114 447.66 -114 448.32 -114 449 C-113.34 449 -112.68 449 -112 449 C-111.505 450.485 -111.505 450.485 -111 452 C-110.34 452 -109.68 452 -109 452 C-108.67 453.65 -108.34 455.3 -108 457 C-106.35 457.33 -104.7 457.66 -103 458 C-103 458.66 -103 459.32 -103 460 C-102.34 460 -101.68 460 -101 460 C-101 460.66 -101 461.32 -101 462 C-100.34 462 -99.68 462 -99 462 C-99 462.66 -99 463.32 -99 464 C-98.34 464 -97.68 464 -97 464 C-96.505 465.485 -96.505 465.485 -96 467 C-92.54923283 470.31411914 -92.54923283 470.31411914 -88 471 C-88 471.66 -88 472.32 -88 473 C-87.34 473 -86.68 473 -86 473 C-86 473.66 -86 474.32 -86 475 C-84.68 475 -83.36 475 -82 475 C-81.34 476.32 -80.68 477.64 -80 479 C-79.34 479 -78.68 479 -78 479 C-78 479.66 -78 480.32 -78 481 C-76.48419823 482.18044671 -76.48419823 482.18044671 -74.4921875 483.27734375 C-73.75226563 483.70853516 -73.01234375 484.13972656 -72.25 484.58398438 C-71.074375 485.25397461 -71.074375 485.25397461 -69.875 485.9375 C-69.11445313 486.38029297 -68.35390625 486.82308594 -67.5703125 487.27929688 C-60.21242641 492.0417847 -60.21242641 492.0417847 -52 494 C-52 494.66 -52 495.32 -52 496 C-50.02 496 -48.04 496 -46 496 C-46 496.66 -46 497.32 -46 498 C-44.68 498 -43.36 498 -42 498 C-42 498.66 -42 499.32 -42 500 C-16.04505955 508.70702766 -16.04505955 508.70702766 11 511 C11 511.99 11 512.98 11 514 C23.87 514 36.74 514 50 514 C50 513.01 50 512.02 50 511 C51.45019531 511.03480469 51.45019531 511.03480469 52.9296875 511.0703125 C60.5655519 511.17615616 67.55811233 510.96115628 75 509 C75 508.34 75 507.68 75 507 C75.97066406 507.0515625 76.94132813 507.103125 77.94140625 507.15625 C82.53853852 507.15625 86.587167 505.87928296 90.9375 504.5 C91.71673828 504.26152344 92.49597656 504.02304687 93.29882812 503.77734375 C95.20190376 503.19357822 97.10134922 502.59800024 99 502 C99 501.34 99 500.68 99 500 C100.98 500 102.96 500 105 500 C105 499.34 105 498.68 105 498 C106.32 498 107.64 498 109 498 C109 497.34 109 496.68 109 496 C109.556875 495.91363281 110.11375 495.82726562 110.6875 495.73828125 C115.93386127 494.77231271 119.73984909 493.23179792 124.140625 490.23046875 C126 489 126 489 129.4375 487.375 C132.31114204 486.21061378 132.31114204 486.21061378 133 483 C134.32 483 135.64 483 137 483 C137 482.34 137 481.68 137 481 C138.32 481 139.64 481 141 481 C141 480.34 141 479.68 141 479 C141.66 479 142.32 479 143 479 C143 478.34 143 477.68 143 477 C143.66 477 144.32 477 145 477 C145 476.34 145 475.68 145 475 C145.556875 474.9175 146.11375 474.835 146.6875 474.75 C149.73677919 473.76104459 151.65189963 472.15242534 154 470 C154 469.34 154 468.68 154 468 C155.65 467.67 157.3 467.34 159 467 C159.33 466.01 159.66 465.02 160 464 C160.66 464 161.32 464 162 464 C162 463.34 162 462.68 162 462 C162.99 461.67 163.98 461.34 165 461 C166.71289005 459.27234836 166.71289005 459.27234836 168.375 457.1875 C171.02727714 454.03968063 173.7624027 451.55083424 177 449 C177 448.34 177 447.68 177 447 C177.99 446.67 178.98 446.34 180 446 C180.33 444.35 180.66 442.7 181 441 C181.66 441 182.32 441 183 441 C183 440.34 183 439.68 183 439 C183.99 438.67 184.98 438.34 186 438 C188.2773501 435.18490007 188.2773501 435.18490007 188 432 C188.66 432 189.32 432 190 432 C190 431.34 190 430.68 190 430 C190.66 430 191.32 430 192 430 C192 428.68 192 427.36 192 426 C192.66 426 193.32 426 194 426 C194 425.34 194 424.68 194 424 C194.66 424 195.32 424 196 424 C196 422.68 196 421.36 196 420 C196.66 420 197.32 420 198 420 C201.76989103 414.78868004 204.52569034 409.09010738 207.3125 403.3125 C207.67424316 402.57588135 208.03598633 401.8392627 208.40869141 401.08032227 C210.21348214 397.25716379 211.50414315 394.33221318 211 390 C211.66 390 212.32 390 213 390 C213 388.68 213 387.36 213 386 C213.66 386 214.32 386 215 386 C215 384.02 215 382.04 215 380 C215.66 380 216.32 380 217 380 C217.64779076 377.60468067 218.29329009 375.20878252 218.9375 372.8125 C219.11990234 372.13896484 219.30230469 371.46542969 219.49023438 370.77148438 C220.87277278 365.61838669 221.96246387 360.5134231 222.71875 355.234375 C222.84636719 354.34363281 222.97398437 353.45289063 223.10546875 352.53515625 C223.23566406 351.61605469 223.36585938 350.69695312 223.5 349.75 C223.69529297 348.39455078 223.69529297 348.39455078 223.89453125 347.01171875 C224.51690394 342.64253677 225.08623639 338.28165773 225.53125 333.890625 C226 330 226 330 227 329 C227.08700342 327.36527118 227.10701063 325.72685945 227.09765625 324.08984375 C227.09282227 322.60581055 227.09282227 322.60581055 227.08789062 321.09179688 C227.07951172 320.05087891 227.07113281 319.00996094 227.0625 317.9375 C227.05573242 316.37032227 227.05573242 316.37032227 227.04882812 314.77148438 C227.03699913 312.1809334 227.02051689 309.59049441 227 307 C226.01 307 225.02 307 224 307 C224 300.07 224 293.14 224 286 C223.34 286 222.68 286 222 286 C222.04640625 285.43796875 222.0928125 284.8759375 222.140625 284.296875 C222.70587981 271.13451303 219.1389453 257.41683589 215 245 C214.34 245 213.68 245 213 245 C213 243.02 213 241.04 213 239 C212.34 239 211.68 239 211 239 C211 237.02 211 235.04 211 233 C210.34 233 209.68 233 209 233 C208.9071875 231.453125 208.9071875 231.453125 208.8125 229.875 C207.74149423 221.18277922 204.0083364 212.71194546 200 205 C199.34 205 198.68 205 198 205 C198 203.68 198 202.36 198 201 C197.34 201 196.68 201 196 201 C196 199.68 196 198.36 196 197 C195.34 197 194.68 197 194 197 C193.88213135 196.27079346 193.7642627 195.54158691 193.64282227 194.7902832 C192.99467402 191.97688164 192.07716839 189.89042726 190.71484375 187.35546875 C190.26689453 186.51435547 189.81894531 185.67324219 189.35742188 184.80664062 C188.88884766 183.94232422 188.42027344 183.07800781 187.9375 182.1875 C187.46505859 181.30384766 186.99261719 180.42019531 186.50585938 179.50976562 C185.34296716 177.33668422 184.17421625 175.16697716 183 173 C182.34 173 181.68 173 181 173 C181 171.68 181 170.36 181 169 C180.34 169 179.68 169 179 169 C179 167.68 179 166.36 179 165 C178.34 165 177.68 165 177 165 C177 164.34 177 163.68 177 163 C176.34 163 175.68 163 175 163 C175 161.68 175 160.36 175 159 C174.34 159 173.68 159 173 159 C173 158.34 173 157.68 173 157 C172.34 157 171.68 157 171 157 C170.90332031 156.45214844 170.80664062 155.90429688 170.70703125 155.33984375 C169.81280759 152.38050689 168.36716314 150.15572725 166.6875 147.5625 C166.09324219 146.63566406 165.49898438 145.70882812 164.88671875 144.75390625 C163.03851566 142.05621851 161.06521358 139.5338263 159 137 C158.0560339 135.75487581 157.11812019 134.5051304 156.1875 133.25 C153.3265433 129.4110632 150.38394516 125.64102544 147.41796875 121.8828125 C146 120 146 120 145 118 C144.34 118 143.68 118 143 118 C143 117.34 143 116.68 143 116 C142.34 116 141.68 116 141 116 C140.34 114.68 139.68 113.36 139 112 C138.34 112 137.68 112 137 112 C137 110.68 137 109.36 137 108 C136.34 108 135.68 108 135 108 C135 107.34 135 106.68 135 106 C134.34 106 133.68 106 133 106 C132.67 105.01 132.34 104.02 132 103 C131.34 103 130.68 103 130 103 C130 102.34 130 101.68 130 101 C123.03909304 96.54501955 116.17873078 95.7096202 108 97 C103.06024193 99.67463585 99.28532801 103.40985431 95.375 107.375 C94.81554687 107.92671875 94.25609375 108.4784375 93.6796875 109.046875 C90.28688127 112.45568504 87.59511881 115.92531119 85 120 C84.34 120.66 83.68 121.32 83 122 C83 122.99 83 123.98 83 125 C82.34 125 81.68 125 81 125 C81 125.66 81 126.32 81 127 C80.01 127.33 79.02 127.66 78 128 C76.60287726 129.95597184 75.26220093 131.95436401 74 134 C73.01 133.67 72.02 133.34 71 133 C71 132.34 71 131.68 71 131 C70.34 131 69.68 131 69 131 C69 130.34 69 129.68 69 129 C68.34 129 67.68 129 67 129 C67 127.68 67 126.36 67 125 C66.34 125 65.68 125 65 125 C64.86464844 124.18402344 64.86464844 124.18402344 64.7265625 123.3515625 C63.77538266 120.2730127 62.19231601 118.03431571 60.375 115.375 C59.65957031 114.323125 58.94414062 113.27125 58.20703125 112.1875 C55.60643534 108.4315951 52.99326996 104.68528664 50.34765625 100.9609375 C49 99 49 99 48 97 C47.34 97 46.68 97 46 97 C45.01 95.02 45.01 95.02 44 93 C43.34 93 42.68 93 42 93 C41.938125 92.29875 41.87625 91.5975 41.8125 90.875 C40.70649878 86.96145722 38.69706462 85.0341977 36 82 C35.67 81.34 35.34 80.68 35 80 C34.34 80 33.68 80 33 80 C33 79.34 33 78.68 33 78 C32.34 78 31.68 78 31 78 C31 77.34 31 76.68 31 76 C30.34 76 29.68 76 29 76 C29 75.34 29 74.68 29 74 C28.34 74 27.68 74 27 74 C27 72.68 27 71.36 27 70 C26.34 70 25.68 70 25 70 C25 69.34 25 68.68 25 68 C24.34 68 23.68 68 23 68 C22.5978125 67.1028125 22.5978125 67.1028125 22.1875 66.1875 C21.00082594 64.00152146 19.90400887 62.58667406 18 61 C17.34 61 16.68 61 16 61 C16 60.34 16 59.68 16 59 C15.34 59 14.68 59 14 59 C14 57.68 14 56.36 14 55 C13.34 55 12.68 55 12 55 C12 54.34 12 53.68 12 53 C11.34 53 10.68 53 10 53 C10 52.34 10 51.68 10 51 C9.34 51 8.68 51 8 51 C7.67 50.01 7.34 49.02 7 48 C4.18490007 45.7226499 4.18490007 45.7226499 1 46 C1 45.34 1 44.68 1 44 C0.34 44 -0.32 44 -1 44 C-1 43.34 -1 42.68 -1 42 C-2.32 42 -3.64 42 -5 42 C-5 41.34 -5 40.68 -5 40 C-8.63 40 -12.26 40 -16 40 Z " fill="#000000" transform="translate(288,37)"/>
</svg>
